<svg width="320" height="97" viewBox="0 0 320 97" fill="none" xmlns="http://www.w3.org/2000/svg">
<g clip-path="url(#clip0_975_375)">
<path d="M198.478 75.4537C179.905 89.1439 152.983 96.4481 129.805 96.4481C97.3045 96.4481 68.046 84.4275 45.9108 64.4348C44.1717 62.8627 45.7299 60.7201 47.8169 61.9445C71.7051 75.8433 101.242 84.2049 131.753 84.2049C152.329 84.2049 174.966 79.9476 195.779 71.113C198.923 69.7773 201.553 73.172 198.478 75.4537Z" fill="#FF9900"/>
<path d="M206.199 66.62C203.834 63.587 190.505 65.187 184.523 65.8965C182.7 66.1191 182.422 64.5331 184.064 63.3922C194.679 55.9211 212.098 58.0776 214.129 60.5819C216.16 63.1001 213.6 80.5606 203.625 88.8943C202.095 90.1743 200.634 89.4926 201.316 87.7952C203.555 82.2023 208.578 69.6669 206.199 66.62Z" fill="#FF9900"/>
<path d="M184.94 10.6478V3.38531C184.94 2.2862 185.775 1.54883 186.777 1.54883H219.291C220.334 1.54883 221.169 2.30012 221.169 3.38531V9.60431C221.155 10.6478 220.279 12.0112 218.72 14.1677L201.872 38.2228C208.133 38.0698 214.741 39.002 220.418 42.2019C221.698 42.9254 222.046 43.9827 222.143 45.0262V52.7756C222.143 53.833 220.974 55.0712 219.75 54.4312C209.747 49.1861 196.46 48.6157 185.399 54.4869C184.272 55.099 183.09 53.8747 183.09 52.8173V45.4575C183.09 44.2749 183.104 42.2575 184.286 40.4628L203.806 12.4703H186.818C185.775 12.4703 184.94 11.733 184.94 10.6478Z" fill="#221F1F"/>
<path d="M66.3347 55.9621H56.4427C55.4966 55.8926 54.7453 55.183 54.6758 54.2787V3.51105C54.6758 2.49542 55.5245 1.68847 56.5818 1.68847H65.806C66.766 1.73018 67.5312 2.46758 67.6007 3.38582V10.0222H67.7816C70.1885 3.60843 74.7101 0.617188 80.8039 0.617188C86.9951 0.617188 90.8628 3.60843 93.6454 10.0222C96.0384 3.60843 101.478 0.617188 107.308 0.617188C111.454 0.617188 115.989 2.32846 118.758 6.16838C121.888 10.4396 121.248 16.6447 121.248 22.0846L121.234 54.1256C121.234 55.1413 120.386 55.9621 119.328 55.9621H109.45C108.462 55.8926 107.669 55.0995 107.669 54.1256V27.2184C107.669 25.0758 107.864 19.7333 107.391 17.702C106.654 14.2934 104.442 13.3334 101.576 13.3334C99.1827 13.3334 96.6784 14.9334 95.6628 17.4934C94.6471 20.0533 94.7445 24.3384 94.7445 27.2184V54.1256C94.7445 55.1413 93.8958 55.9621 92.8385 55.9621H82.9604C81.9587 55.8926 81.1796 55.0995 81.1796 54.1256L81.1657 27.2184C81.1657 21.5559 82.0978 13.2221 75.0719 13.2221C67.9625 13.2221 68.2407 21.3472 68.2407 27.2184V54.1256C68.2407 55.1413 67.392 55.9621 66.3347 55.9621Z" fill="#221F1F"/>
<path d="M249.162 0.617188C263.84 0.617188 271.784 13.2221 271.784 29.2496C271.784 44.7345 263.005 57.0195 249.162 57.0195C234.748 57.0195 226.901 44.4145 226.901 28.707C226.901 12.9021 234.846 0.617188 249.162 0.617188ZM249.245 10.9822C241.955 10.9822 241.496 20.9159 241.496 27.1071C241.496 33.3122 241.398 46.5571 249.162 46.5571C256.828 46.5571 257.189 35.8721 257.189 29.3609C257.189 25.0758 257.009 19.9559 255.715 15.8934C254.602 12.3596 252.39 10.9822 249.245 10.9822Z" fill="#221F1F"/>
<path d="M290.817 55.9621H280.967C279.979 55.8926 279.186 55.0995 279.186 54.1256L279.172 3.34409C279.255 2.41193 280.076 1.68847 281.078 1.68847H290.246C291.109 1.73018 291.819 2.31455 292.013 3.10757V10.8709H292.194C294.963 3.92842 298.844 0.617188 305.676 0.617188C310.114 0.617188 314.441 2.21716 317.223 6.59967C319.811 10.6622 319.811 17.4934 319.811 22.4046V54.3622C319.7 55.2526 318.879 55.9621 317.905 55.9621H307.985C307.081 55.8926 306.33 55.2247 306.232 54.3622V26.7871C306.232 21.2359 306.872 13.1108 300.041 13.1108C297.634 13.1108 295.422 14.7247 294.323 17.1734C292.932 20.2759 292.751 23.3645 292.751 26.7871V54.1256C292.737 55.1413 291.874 55.9621 290.817 55.9621Z" fill="#221F1F"/>
<path d="M159.021 31.7128V29.5702C151.87 29.5702 144.315 31.1007 144.315 39.5318C144.315 43.803 146.528 46.6969 150.326 46.6969C153.108 46.6969 155.599 44.9856 157.171 42.203C159.119 38.7805 159.021 35.5666 159.021 31.7128ZM168.997 55.8236C168.343 56.4079 167.397 56.4497 166.659 56.0601C163.376 53.3332 162.792 52.0672 160.983 49.4655C155.557 55.0028 151.717 56.6584 144.677 56.6584C136.357 56.6584 129.874 51.5246 129.874 41.2431C129.874 33.2154 134.229 27.7477 140.42 25.0764C145.79 22.7113 153.289 22.2939 159.021 21.64V20.36C159.021 18.0087 159.202 15.2262 157.825 13.1949C156.614 11.3724 154.305 10.6211 152.274 10.6211C148.503 10.6211 145.136 12.5549 144.315 16.5618C144.149 17.4522 143.495 18.3287 142.604 18.3705L133.004 17.3409C132.197 17.1601 131.307 16.5062 131.53 15.2679C133.742 3.63688 144.246 0.130859 153.651 0.130859C158.465 0.130859 164.753 1.41083 168.551 5.05597C173.365 9.54979 172.906 15.5462 172.906 22.0713V37.4866C172.906 42.1196 174.826 44.1508 176.635 46.6551C177.275 47.5455 177.414 48.6168 176.607 49.2846C174.59 50.9681 171 54.0984 169.025 55.8514L168.997 55.8236Z" fill="#221F1F"/>
<path d="M29.3406 31.7128V29.5702C22.1894 29.5702 14.6348 31.1007 14.6348 39.5318C14.6348 43.803 16.8469 46.6969 20.6451 46.6969C23.4277 46.6969 25.918 44.9856 27.4902 42.203C29.438 38.7805 29.3406 35.5666 29.3406 31.7128ZM39.316 55.8236C38.6621 56.4079 37.716 56.4497 36.9787 56.0601C33.6953 53.3332 33.1109 52.0672 31.3023 49.4655C25.8763 55.0028 22.0364 56.6584 14.9965 56.6584C6.67669 56.6584 0.193359 51.5246 0.193359 41.2431C0.193359 33.2154 4.54805 27.7477 10.7392 25.0764C16.1095 22.7113 23.6085 22.2939 29.3406 21.64V20.36C29.3406 18.0087 29.5214 15.2262 28.1441 13.1949C26.9337 11.3724 24.6242 10.6211 22.5929 10.6211C18.8225 10.6211 15.4556 12.5549 14.6348 16.5618C14.4678 17.4522 13.8139 18.3287 12.9235 18.3705L3.32373 17.3409C2.51679 17.1601 1.62637 16.5062 1.84897 15.2679C4.0611 3.63688 14.5652 0.130859 23.9703 0.130859C28.7841 0.130859 35.0726 1.41083 38.8708 5.05597C43.6846 9.54979 43.2255 15.5462 43.2255 22.0713V37.4866C43.2255 42.1196 45.1455 44.1508 46.9541 46.6551C47.5941 47.5455 47.7332 48.6168 46.9263 49.2846C44.9089 50.9681 41.3195 54.0984 39.3438 55.8514L39.316 55.8236Z" fill="#221F1F"/>
</g>
<defs>
<clipPath id="clip0_975_375">
<rect width="320" height="96.5837" fill="white"/>
</clipPath>
</defs>
</svg>
