<svg width="320" height="70" viewBox="0 0 320 70" fill="none" xmlns="http://www.w3.org/2000/svg">
<path d="M297.728 55.4223C297.728 50.9137 301.388 47.2559 305.894 47.2559C310.402 47.2559 314.058 50.9137 314.058 55.4223C314.058 59.9308 310.402 63.5862 305.894 63.5862C301.388 63.5862 297.728 59.9308 297.728 55.4223Z" fill="#86BC24"/>
<path d="M37.2868 33.7964C37.2868 28.6238 36.2874 24.7864 34.2883 22.2864C32.2868 19.7888 29.2549 18.5411 25.1789 18.5411H20.843V50.1717H24.1604C28.6878 50.1717 32.0055 48.8296 34.118 46.1358C36.228 43.4467 37.2868 39.3328 37.2868 33.7964ZM52.7498 33.2577C52.7498 42.6811 50.2167 49.9424 45.1505 55.0393C40.0844 60.1386 32.9626 62.6883 23.7824 62.6883H5.94434V6.2207H25.0275C33.8792 6.2207 40.7128 8.53875 45.5285 13.1725C50.342 17.8086 52.7498 24.5005 52.7498 33.2577Z" fill="#0F0B0B"/>
<path d="M102.161 62.6863H116.356V5.98242H102.161V62.6863Z" fill="#0F0B0B"/>
<path d="M136.296 41.5355C136.296 45.1509 136.768 47.9084 137.711 49.8035C138.657 51.7009 140.24 52.6485 142.465 52.6485C144.668 52.6485 146.225 51.7009 147.132 49.8035C148.04 47.9084 148.491 45.1509 148.491 41.5355C148.491 37.9391 148.032 35.2264 147.113 33.3951C146.192 31.5591 144.621 30.6398 142.393 30.6398C140.214 30.6398 138.657 31.5544 137.711 33.3739C136.768 35.1957 136.296 37.9155 136.296 41.5355ZM162.938 41.5355C162.938 48.4235 161.133 53.7969 157.513 57.6485C153.895 61.5025 148.831 63.4306 142.321 63.4306C136.078 63.4306 131.109 61.4599 127.42 57.5185C123.727 53.5771 121.882 48.2511 121.882 41.5355C121.882 34.6688 123.69 29.3332 127.31 25.5288C130.93 21.7244 136.005 19.8223 142.541 19.8223C146.58 19.8223 150.152 20.7037 153.248 22.4641C156.346 24.2245 158.737 26.7458 160.417 30.0303C162.099 33.3101 162.938 37.1475 162.938 41.5355Z" fill="#0F0B0B"/>
<path d="M168.575 62.6861H182.772V40.9848V20.5664H168.575V62.6861Z" fill="#0F0B0B"/>
<path d="M168.574 15.4725H182.771V5.98047H168.574V15.4725Z" fill="#0F0B0B"/>
<path d="M211.533 51.9436C213.449 51.9436 215.731 51.4569 218.394 50.4904V61.0882C216.48 61.9294 214.661 62.532 212.931 62.8888C211.202 63.2504 209.172 63.4299 206.849 63.4299C202.083 63.4299 198.647 62.2319 196.537 59.8406C194.436 57.4493 193.383 53.7773 193.383 48.8222V31.4592H188.411V20.5706H193.383V9.81443L207.688 7.32617V20.5706H216.745V31.4592H207.688V47.8533C207.688 50.5802 208.971 51.9436 211.533 51.9436Z" fill="#0F0B0B"/>
<path d="M244.389 51.9436C246.306 51.9436 248.589 51.4569 251.252 50.4904V61.0882C249.34 61.9294 247.518 62.532 245.788 62.8888C244.056 63.2504 242.034 63.4299 239.706 63.4299C234.94 63.4299 231.504 62.2319 229.399 59.8406C227.294 57.4493 226.24 53.7773 226.24 48.8222V31.4592H221.266V20.5706H226.24V9.6514L240.543 7.32617V20.5706H249.605V31.4592H240.543V47.8533C240.543 50.5802 241.826 51.9436 244.389 51.9436Z" fill="#0F0B0B"/>
<path d="M269.164 36.4051C269.357 34.0988 270.017 32.4093 271.142 31.3295C272.271 30.2519 273.665 29.7132 275.334 29.7132C277.153 29.7132 278.599 30.3181 279.672 31.5374C280.752 32.7496 281.314 34.3729 281.359 36.4051H269.164ZM289.183 24.7889C285.808 21.4807 281.021 19.8242 274.828 19.8242C268.318 19.8242 263.309 21.7264 259.797 25.5307C256.288 29.3351 254.532 34.7936 254.532 41.9061C254.532 48.7941 256.43 54.106 260.215 57.8347C264.003 61.5635 269.322 63.4303 276.172 63.4303C279.461 63.4303 282.293 63.2058 284.665 62.7592C287.023 62.3174 289.306 61.5186 291.52 60.3655L289.339 50.8735C287.73 51.5304 286.198 52.0361 284.752 52.3692C282.663 52.8537 280.372 53.0971 277.876 53.0971C275.14 53.0971 272.98 52.4283 271.397 51.0908C269.814 49.7511 268.97 47.9033 268.873 45.5498H294.247V39.0823C294.247 32.8607 292.559 28.0946 289.183 24.7889Z" fill="#0F0B0B"/>
<path d="M71.5894 36.4051C71.7832 34.0988 72.4424 32.4093 73.567 31.3295C74.6943 30.2519 76.091 29.7132 77.7617 29.7132C79.5765 29.7132 81.0224 30.3181 82.0977 31.5374C83.1775 32.7496 83.7376 34.3729 83.7873 36.4051H71.5894ZM91.6109 24.7889C88.2343 21.4807 83.4491 19.8242 77.2536 19.8242C70.7411 19.8242 65.7339 21.7264 62.2248 25.5307C58.7159 29.3351 56.958 34.7936 56.958 41.9061C56.958 48.7941 58.8532 54.106 62.6434 57.8347C66.4289 61.5635 71.7477 63.4303 78.598 63.4303C81.8872 63.4303 84.7179 63.2058 87.0903 62.7592C89.4486 62.3174 91.7316 61.5186 93.948 60.3655L91.7646 50.8735C90.1553 51.5304 88.624 52.0361 87.1803 52.3692C85.0868 52.8537 82.7969 53.0971 80.3015 53.0971C77.5676 53.0971 75.4059 52.4283 73.8227 51.0908C72.2371 49.7511 71.3959 47.9033 71.2991 45.5498H96.6723V39.0823C96.6723 32.8607 94.9852 28.0946 91.6109 24.7889Z" fill="#0F0B0B"/>
</svg>
