<svg width="320" height="125" viewBox="0 0 320 125" fill="none" xmlns="http://www.w3.org/2000/svg">
<path d="M26.5433 4.14844H3.80176V26.5788H26.5433V4.14844Z" fill="#0068B5"/>
<path d="M25.9778 121.014V40.233H4.4502V121.014H25.9778ZM169.063 121.812V102.016C165.907 102.016 163.236 101.856 161.294 101.537C159.028 101.218 157.328 100.42 156.195 99.3022C155.062 98.1846 154.334 96.5882 153.929 94.5128C153.605 92.5172 153.444 89.883 153.444 86.6901V58.4327H169.063V40.233H153.444V8.70278H131.835V86.8497C131.835 93.4751 132.402 99.0627 133.535 103.533C134.668 107.923 136.61 111.515 139.281 114.229C141.951 116.943 145.512 118.859 149.802 120.056C154.172 121.254 159.675 121.812 166.231 121.812H169.063ZM292.725 121.014V2.47656H271.117V121.014H292.725ZM111.036 48.1355C105.047 41.7496 96.6303 38.5567 85.9474 38.5567C80.7678 38.5567 76.0739 39.5944 71.7845 41.6698C67.5761 43.7452 63.9343 46.6188 61.1017 50.2907L59.8877 51.8073V50.4503V40.233H38.603V121.014H60.0496V77.9893V80.9428C60.0496 80.4639 60.0496 79.9849 60.0496 79.506C60.2924 71.9228 62.1538 66.3352 65.7147 62.7431C69.5185 58.9116 74.1315 56.9958 79.392 56.9958C85.6237 56.9958 90.3986 58.9116 93.5549 62.5835C96.6303 66.2553 98.2489 71.4438 98.2489 78.0692V78.2288V120.934H120.019V75.1157C120.1 63.6212 117.025 54.5213 111.036 48.1355ZM259.948 80.4639C259.948 74.6368 258.896 69.2088 256.873 64.1001C254.769 59.0712 251.855 54.6011 248.213 50.7696C244.491 46.9381 240.039 43.9847 234.86 41.8294C229.68 39.6742 223.934 38.6365 217.703 38.6365C211.795 38.6365 206.21 39.754 201.031 41.9092C195.851 44.1443 191.319 47.0978 187.515 50.8494C183.712 54.6011 180.636 59.0712 178.451 64.1799C176.185 69.2886 175.133 74.7964 175.133 80.6235C175.133 86.4506 176.185 91.9584 178.289 97.0671C180.394 102.176 183.388 106.646 187.111 110.398C190.834 114.149 195.447 117.183 200.788 119.338C206.13 121.573 212.037 122.69 218.35 122.69C236.64 122.69 247.971 114.469 254.769 106.806L239.23 95.1513C235.993 98.9829 228.224 104.171 218.512 104.171C212.442 104.171 207.424 102.814 203.621 100.021C199.817 97.3066 197.227 93.4751 195.851 88.7655L195.609 88.0471H259.948V80.4639ZM195.77 73.0403C195.77 67.1334 202.649 56.8362 217.46 56.7564C232.27 56.7564 239.23 67.0536 239.23 72.9605L195.77 73.0403Z" fill="black"/>
<path d="M317.327 110.477C316.923 109.519 316.356 108.721 315.628 108.002C314.899 107.284 314.09 106.725 313.119 106.326C312.148 105.927 311.096 105.688 310.044 105.688C308.91 105.688 307.939 105.927 306.968 106.326C305.997 106.725 305.188 107.284 304.459 108.002C303.731 108.721 303.164 109.519 302.76 110.477C302.355 111.435 302.112 112.472 302.112 113.51C302.112 114.628 302.355 115.586 302.76 116.543C303.164 117.501 303.731 118.3 304.459 119.018C305.188 119.736 305.997 120.295 306.968 120.694C307.939 121.093 308.991 121.333 310.044 121.333C311.177 121.333 312.148 121.093 313.119 120.694C314.09 120.295 314.899 119.736 315.628 119.018C316.356 118.3 316.923 117.501 317.327 116.543C317.732 115.586 317.975 114.548 317.975 113.51C317.975 112.472 317.732 111.435 317.327 110.477ZM316.032 116.065C315.709 116.863 315.223 117.581 314.657 118.14C314.09 118.699 313.362 119.178 312.552 119.497C311.743 119.816 310.934 119.976 309.963 119.976C309.072 119.976 308.182 119.816 307.373 119.497C306.563 119.178 305.835 118.699 305.269 118.14C304.702 117.581 304.217 116.863 303.893 116.065C303.569 115.266 303.407 114.468 303.407 113.51C303.407 112.632 303.569 111.754 303.893 110.956C304.217 110.158 304.702 109.439 305.269 108.88C305.835 108.322 306.563 107.843 307.373 107.523C308.182 107.204 308.991 107.045 309.963 107.045C310.853 107.045 311.743 107.204 312.552 107.523C313.362 107.843 314.09 108.322 314.657 108.88C315.223 109.439 315.709 110.158 316.032 110.956C316.356 111.754 316.518 112.552 316.518 113.51C316.599 114.468 316.356 115.266 316.032 116.065ZM311.5 114.149C312.148 114.069 312.633 113.829 313.038 113.43C313.443 113.031 313.685 112.472 313.685 111.674C313.685 110.796 313.443 110.158 312.876 109.679C312.391 109.2 311.5 108.96 310.448 108.96H306.887V117.98H308.587V114.308H309.801L312.067 117.98H313.847L311.5 114.149ZM310.61 112.872C310.367 112.872 310.124 112.872 309.801 112.872H308.587V110.317H309.801C310.044 110.317 310.286 110.317 310.61 110.317C310.853 110.317 311.096 110.397 311.338 110.477C311.581 110.557 311.743 110.716 311.824 110.876C311.905 111.036 311.986 111.275 311.986 111.594C311.986 111.914 311.905 112.153 311.824 112.313C311.662 112.472 311.5 112.632 311.338 112.712C311.096 112.792 310.853 112.872 310.61 112.872Z" fill="black"/>
</svg>
