<svg width="320" height="62" viewBox="0 0 320 62" fill="none" xmlns="http://www.w3.org/2000/svg">
<path d="M62.5704 61.2957H45.6609L14.9892 30.7807L45.6609 0.265625H62.6237L32.0053 30.7807L62.5704 61.2957ZM0 61.2957H13.4956V0.265625H0V61.2957Z" fill="#FEAE5C"/>
<path d="M41.6606 0.212891L16.4297 25.2522V0.212891H41.6606ZM38.62 1.43562H17.7632V22.1688L38.62 1.43562ZM41.6606 61.2961L16.4297 36.2568V61.2961H41.6606ZM38.62 60.0734H17.7632V39.3402L38.62 60.0734ZM37.8733 30.7811L62.144 54.9698V6.59234L37.8733 30.7811ZM36.0596 30.7811L63.4775 3.45578V58.1064L36.0596 30.7811Z" fill="#AEADAF"/>
<path d="M87.215 42.7423V42.6891C87.215 40.8285 85.8281 39.4994 83.9078 39.4994C81.8274 39.4994 80.3872 40.9348 80.3872 42.8486V42.9018C80.3872 44.284 80.9739 45.2941 82.7342 47.1548C85.7214 46.1447 87.215 44.7625 87.215 42.7423ZM87.9618 56.0328L81.7207 49.6534C78.6269 50.7698 77.24 52.6836 77.24 54.6506V54.7038C77.24 57.2024 79.2136 59.0631 82.0941 59.0631C84.3345 59.0099 86.2548 57.8935 87.9618 56.0328ZM89.562 57.6277C87.4283 59.9137 84.9746 61.2427 81.9341 61.2427C77.7201 61.2427 74.6262 58.6378 74.6262 54.7569V54.7038C74.6262 51.6204 76.7066 49.3876 80.2271 48.0054C78.6269 46.1447 77.8801 44.7093 77.8801 42.9018V42.8486C77.8801 39.8184 80.3338 37.3198 84.0144 37.3198C87.2683 37.3198 89.6687 39.6589 89.6687 42.5828V42.636C89.6687 45.6131 87.5884 47.4737 84.1745 48.6965L89.5087 54.119C90.5222 52.6305 91.4824 50.8761 92.2825 48.9623L94.4695 49.9724C93.456 52.152 92.3892 54.1722 91.109 55.8202L95.163 59.9668L93.1893 61.5085L89.562 57.6277ZM121.301 52.4178L116.02 40.6158L110.686 52.4178H121.301ZM114.846 37.5324H117.3L127.915 60.9237H125.088L122.367 54.8101H109.672L106.898 60.9237H104.178L114.846 37.5324ZM130.529 57.5214L132.182 55.6075C134.636 57.7872 136.93 58.9036 140.184 58.9036C143.331 58.9036 145.358 57.2556 145.358 54.9696V54.9164C145.358 52.7368 144.184 51.5141 139.277 50.504C133.943 49.3344 131.436 47.6332 131.436 43.8056V43.7524C131.436 40.0842 134.69 37.4261 139.064 37.4261C142.478 37.4261 144.878 38.383 147.225 40.2969L145.678 42.317C143.491 40.5627 141.357 39.8184 138.957 39.8184C135.916 39.8184 133.996 41.4664 133.996 43.5397V43.5929C133.996 45.7726 135.17 46.9953 140.344 48.1117C145.518 49.2281 147.918 51.1419 147.918 54.7038V54.7569C147.918 58.7441 144.611 61.2959 139.97 61.2959C136.343 61.2427 133.356 60.02 130.529 57.5214ZM151.546 57.5214L153.199 55.6075C155.653 57.7872 157.947 58.9036 161.201 58.9036C164.348 58.9036 166.375 57.2556 166.375 54.9696V54.9164C166.375 52.7368 165.201 51.5141 160.294 50.504C154.96 49.3344 152.453 47.6332 152.453 43.8056V43.7524C152.453 40.0842 155.706 37.4261 160.08 37.4261C163.494 37.4261 165.895 38.383 168.242 40.2969L166.695 42.317C164.508 40.5627 162.374 39.8184 159.974 39.8184C156.933 39.8184 155.013 41.4664 155.013 43.5397V43.5929C155.013 45.7726 156.186 46.9953 161.361 48.1117C166.535 49.2281 168.935 51.1419 168.935 54.7038V54.7569C168.935 58.7441 165.628 61.2959 160.987 61.2959C157.36 61.2427 154.319 60.02 151.546 57.5214ZM194.379 49.3876V49.3344C194.379 44.0714 190.539 39.7652 185.205 39.7652C179.87 39.7652 176.083 44.0182 176.083 49.2812V49.3344C176.083 54.5974 179.924 58.9036 185.258 58.9036C190.539 58.9036 194.379 54.6506 194.379 49.3876ZM173.309 49.3876V49.3344C173.309 42.955 178.11 37.3198 185.205 37.3198C192.299 37.3198 197.047 42.8486 197.047 49.2812V49.3344C197.047 55.7139 192.246 61.349 185.151 61.349C178.057 61.349 173.309 55.767 173.309 49.3876ZM201.634 49.3876V49.3344C201.634 42.7423 206.542 37.3198 213.423 37.3198C217.637 37.3198 220.197 38.8083 222.491 40.988L220.677 42.9018C218.704 41.0411 216.517 39.7121 213.369 39.7121C208.195 39.7121 204.354 43.9119 204.354 49.2281V49.2812C204.354 54.6506 208.248 58.8504 213.369 58.8504C216.57 58.8504 218.65 57.6277 220.891 55.5012L222.598 57.2024C220.144 59.6479 217.53 61.2959 213.263 61.2959C206.595 61.2959 201.634 56.0328 201.634 49.3876ZM227.452 37.6919H230.065V60.9237H227.452V37.6919ZM251.989 52.4178L246.708 40.6158L241.374 52.4178H251.989ZM245.481 37.5324H247.935L258.55 60.9237H255.723L253.003 54.8101H240.307L237.533 60.9237H234.813L245.481 37.5324ZM266.338 40.1374H258.497V37.6919H276.793V40.1374H268.952V60.9237H266.285V40.1374H266.338ZM281.754 37.6919H298.61V40.0842H284.421V48.0054H297.117V50.3976H284.421V58.5315H298.824V60.9237H281.807V37.6919H281.754ZM302.504 57.5214L304.158 55.6075C306.611 57.7872 308.905 58.9036 312.159 58.9036C315.306 58.9036 317.333 57.2556 317.333 54.9696V54.9164C317.333 52.7368 316.16 51.5141 311.252 50.504C305.918 49.3344 303.411 47.6332 303.411 43.8056V43.7524C303.411 40.0842 306.665 37.4261 311.039 37.4261C314.453 37.4261 316.853 38.383 319.2 40.2969L317.653 42.317C315.466 40.5627 313.333 39.8184 310.932 39.8184C307.892 39.8184 305.971 41.4664 305.971 43.5397V43.5929C305.971 45.7726 307.145 46.9953 312.319 48.1117C317.493 49.2281 319.894 51.1419 319.894 54.7038V54.7569C319.894 58.7441 316.586 61.2959 311.946 61.2959C308.318 61.2427 305.278 60.02 302.504 57.5214ZM74.5195 0.478455H81.0806V13.5032L93.1893 0.531621H101.137L88.9753 13.131L101.671 30.2492H93.7761L84.5479 17.5966L81.0806 21.1585V30.2492H74.5195V0.478455ZM105.885 0.531621H112.446V30.2492H105.885V0.531621ZM126.848 6.53893H117.78V0.531621H142.478V6.53893H133.409V30.2492H126.848V6.53893ZM154.48 6.53893H145.411V0.531621H170.109V6.53893H161.041V30.2492H154.48V6.53893ZM175.123 0.478455H197.633V6.27312H181.684V12.2804H195.713V18.0751H181.684V24.2951H197.847V30.0897H175.123V0.478455ZM203.661 0.478455H210.222V24.2419H225.105V30.1961H203.661V0.478455ZM228.038 25.8899L231.932 21.2648C234.6 23.4445 237.427 24.8798 240.841 24.8798C243.508 24.8798 245.161 23.8166 245.161 22.0623V22.0091C245.161 20.3611 244.148 19.5105 239.134 18.2346C233.106 16.6929 229.265 15.0449 229.265 9.14388V9.03755C229.265 3.66818 233.586 0.106323 239.72 0.106323C244.041 0.106323 247.775 1.48853 250.816 3.88083L247.402 8.8249C244.735 7.01739 242.174 5.90099 239.667 5.90099C237.16 5.90099 235.826 7.07056 235.826 8.50593V8.61226C235.826 10.5793 237.107 11.2172 242.281 12.4931C248.308 14.088 251.722 16.2144 251.722 21.4243V21.5306C251.722 27.4316 247.188 30.7277 240.787 30.7277C236.146 30.6214 231.612 29.0796 228.038 25.8899ZM280.847 15.4702V15.3638C280.847 10.2603 277.113 6.00731 271.832 6.00731C266.551 6.00731 262.871 10.154 262.871 15.2575V15.3638C262.871 20.4674 266.605 24.7204 271.886 24.7204C277.167 24.7204 280.847 20.5206 280.847 15.4702ZM255.99 15.4702V15.3638C255.99 6.91107 262.658 0 271.886 0C281.114 0 287.675 6.85791 287.675 15.2575V15.3638C287.675 23.8166 281.007 30.7277 271.779 30.7277C262.604 30.7277 255.99 23.8698 255.99 15.4702ZM293.543 0.478455H299.57L313.546 18.8194V0.531621H320V30.2492H314.399L299.944 11.3767V30.2492H293.489V0.478455H293.543Z" fill="#8A8A8D"/>
</svg>
