<svg width="320" height="68" viewBox="0 0 320 68" fill="none" xmlns="http://www.w3.org/2000/svg">
<g clip-path="url(#clip0_975_355)">
<path d="M112.954 39.1682L111.047 44.5449H110.888C110.57 43.3325 109.987 41.4876 109.033 39.2736L98.8082 13.7077H88.7949V54.455H95.4174V29.3108C95.4174 27.7294 95.4174 25.9372 95.3645 23.7232C95.3115 22.6163 95.2055 21.7728 95.1525 21.1403H95.3115C95.6294 22.7217 96.0002 23.8814 96.2651 24.6194L108.557 54.3496H113.219L125.404 24.3558C125.669 23.6705 125.934 22.3 126.199 21.1403H126.358C126.199 24.1449 126.093 26.8333 126.04 28.4674V54.2969H133.086V13.6023H123.444L112.954 39.1682ZM139.762 25.0938H146.649V54.2969H139.762V25.0938ZM143.258 12.7589C142.093 12.7589 141.139 13.1806 140.345 13.9186C139.55 14.6566 139.126 15.6054 139.126 16.7651C139.126 17.8721 139.55 18.8209 140.345 19.5589C141.139 20.2969 142.093 20.6659 143.258 20.6659C144.424 20.6659 145.431 20.2442 146.172 19.5589C146.967 18.8209 147.391 17.8721 147.391 16.7651C147.391 15.6581 146.967 14.7093 146.172 13.9186C145.484 13.1806 144.477 12.7589 143.258 12.7589ZM171.073 24.8302C169.802 24.5666 168.477 24.4085 167.206 24.4085C164.08 24.4085 161.219 25.0938 158.835 26.4643C156.451 27.8349 154.543 29.7325 153.325 32.1046C152.053 34.5294 151.417 37.3232 151.417 40.5387C151.417 43.3325 152.053 45.8101 153.272 48.0767C154.49 50.2907 156.186 52.0829 158.464 53.2953C160.636 54.5077 163.179 55.1403 166.04 55.1403C169.325 55.1403 172.133 54.455 174.358 53.1899L174.411 53.1372V46.8116L174.146 47.0225C173.139 47.7604 171.974 48.393 170.808 48.762C169.59 49.1837 168.477 49.3946 167.523 49.3946C164.768 49.3946 162.596 48.6039 161.06 46.8643C159.47 45.1775 158.676 42.8581 158.676 39.9589C158.676 36.9542 159.47 34.5822 161.113 32.8426C162.755 31.1031 164.927 30.207 167.576 30.207C169.802 30.207 172.08 30.9449 174.146 32.4209L174.411 32.6318V25.9372L174.358 25.8845C173.457 25.5155 172.451 25.0938 171.073 24.8302ZM193.802 24.6194C192.106 24.6194 190.517 25.1465 189.139 26.2535C187.974 27.2023 187.179 28.5728 186.49 30.207H186.437V25.0938H179.55V54.2969H186.437V39.3791C186.437 36.8488 186.967 34.7403 188.133 33.2116C189.298 31.6302 190.782 30.8395 192.583 30.8395C193.219 30.8395 193.855 30.9977 194.649 31.1031C195.391 31.3139 195.921 31.5248 196.292 31.7884L196.557 31.9992V25.1465L196.398 25.0938C195.921 24.7775 194.967 24.6194 193.802 24.6194ZM212.557 24.4612C207.735 24.4612 203.868 25.8845 201.166 28.6783C198.411 31.4721 197.086 35.3201 197.086 40.1697C197.086 44.7031 198.464 48.393 201.113 51.0814C203.762 53.717 207.364 55.0876 211.868 55.0876C216.583 55.0876 220.345 53.6643 223.047 50.8178C225.802 47.9713 227.126 44.176 227.126 39.4845C227.126 34.8457 225.855 31.1558 223.258 28.4674C220.768 25.7791 217.113 24.4612 212.557 24.4612ZM218.066 46.917C216.795 48.5511 214.782 49.3418 212.292 49.3418C209.802 49.3418 207.788 48.5511 206.358 46.8116C204.927 45.1775 204.239 42.8054 204.239 39.8008C204.239 36.6907 204.98 34.3186 206.358 32.6318C207.788 30.9449 209.749 30.1015 212.239 30.1015C214.676 30.1015 216.583 30.8922 217.96 32.5263C219.338 34.1604 220.08 36.5325 220.08 39.6426C219.974 42.8054 219.391 45.2829 218.066 46.917ZM242.49 37.2178C240.318 36.3217 238.941 35.6364 238.305 35.0566C237.775 34.5294 237.51 33.7915 237.51 32.8426C237.51 32.0519 237.828 31.2612 238.623 30.7341C239.417 30.207 240.318 29.9434 241.643 29.9434C242.808 29.9434 244.027 30.1542 245.192 30.4705C246.358 30.7868 247.417 31.2612 248.265 31.8938L248.53 32.1046V25.6736L248.371 25.6209C247.576 25.3046 246.517 24.9884 245.245 24.7248C243.974 24.5139 242.808 24.4085 241.855 24.4085C238.57 24.4085 235.868 25.1992 233.749 26.9387C231.629 28.5728 230.623 30.7868 230.623 33.3697C230.623 34.7403 230.835 35.9527 231.311 36.9542C231.788 37.9558 232.477 38.9046 233.431 39.6953C234.384 40.4333 235.762 41.2767 237.669 42.0674C239.258 42.7527 240.477 43.2798 241.219 43.7015C241.96 44.1232 242.437 44.5977 242.808 44.9667C243.073 45.3884 243.232 45.9155 243.232 46.6008C243.232 48.5511 241.749 49.5 238.729 49.5C237.563 49.5 236.345 49.2891 234.914 48.8147C233.484 48.3403 232.159 47.655 231.047 46.8643L230.782 46.6535V53.348L230.941 53.4008C231.947 53.8752 233.166 54.1915 234.649 54.5604C236.133 54.824 237.457 55.0349 238.623 55.0349C242.172 55.0349 245.086 54.2442 247.153 52.5046C249.272 50.8178 250.384 48.6566 250.384 45.8628C250.384 43.9124 249.855 42.1729 248.689 40.855C247.153 39.5899 245.245 38.2721 242.49 37.2178ZM268.556 24.4612C263.735 24.4612 259.868 25.8845 257.166 28.6783C254.464 31.4721 253.086 35.3201 253.086 40.1697C253.086 44.7031 254.464 48.393 257.113 51.0814C259.762 53.717 263.364 55.0876 267.868 55.0876C272.583 55.0876 276.345 53.6643 279.047 50.8178C281.802 47.9713 283.126 44.176 283.126 39.4845C283.126 34.8457 281.855 31.1558 279.258 28.4674C276.768 25.7791 273.113 24.4612 268.556 24.4612ZM274.013 46.917C272.742 48.5511 270.729 49.3418 268.239 49.3418C265.696 49.3418 263.735 48.5511 262.305 46.8116C260.874 45.1775 260.186 42.8054 260.186 39.8008C260.186 36.6907 260.927 34.3186 262.305 32.6318C263.735 30.9449 265.696 30.1015 268.186 30.1015C270.57 30.1015 272.53 30.8922 273.907 32.5263C275.285 34.1604 276.027 36.5325 276.027 39.6426C276.027 42.8054 275.338 45.2829 274.013 46.917ZM319.947 30.7341V25.0938H313.007V16.4488L312.795 16.5015L306.225 18.4519L306.066 18.5046V25.0938H295.682V21.4039C295.682 19.717 296.106 18.3992 296.848 17.5558C297.59 16.7124 298.702 16.2907 300.08 16.2907C301.033 16.2907 302.04 16.5015 303.153 16.976L303.417 17.1341V11.1775L303.259 11.1248C302.305 10.8085 301.033 10.5977 299.391 10.5977C297.325 10.5977 295.523 11.0721 293.881 11.8628C292.239 12.7589 291.02 13.9713 290.119 15.6054C289.219 17.1868 288.742 18.9791 288.742 21.0349V25.0938H283.921V30.6814H288.742V54.2969H295.682V30.7341H306.066V45.7573C306.066 51.9248 308.98 55.0349 314.808 55.0349C315.762 55.0349 316.768 54.8767 317.722 54.7186C318.729 54.5077 319.47 54.2442 319.894 54.0333L319.947 53.9806V48.3403L319.682 48.5511C319.259 48.8147 318.888 49.0256 318.252 49.1837C317.722 49.3418 317.245 49.3946 316.874 49.3946C315.497 49.3946 314.543 49.0783 313.855 48.2876C313.219 47.5496 312.901 46.3372 312.901 44.5449V30.7341H319.947Z" fill="#737373"/>
<path d="M0 0H32.4768V32.3132H0V0Z" fill="#F25022"/>
<path d="M35.8672 0H68.344V32.3132H35.8672V0Z" fill="#7FBA00"/>
<path d="M0 35.6875H32.4768V68.0007H0V35.6875Z" fill="#00A4EF"/>
<path d="M35.8672 35.6875H68.344V68.0007H35.8672V35.6875Z" fill="#FFB900"/>
</g>
<defs>
<clipPath id="clip0_975_355">
<rect width="320" height="68" fill="white"/>
</clipPath>
</defs>
</svg>
