<svg width="320" height="59" viewBox="0 0 320 59" fill="none" xmlns="http://www.w3.org/2000/svg">
<g clip-path="url(#clip0_975_370)">
<path d="M44.8876 19.8609V19.429C44.8876 13.815 43.1626 9.06468 39.7124 5.82561C35.831 2.15491 30.0091 0.211539 23.1085 0.211539H0.0361328V58.7269H13.1901V39.7259H20.7373L31.9499 58.7269H46.8285L33.8904 37.1348C38.8499 34.7596 44.8876 30.0097 44.8876 19.8609ZM31.7336 20.0768C31.7336 25.475 28.0679 28.7135 22.0303 28.7135H13.1892V11.6556H22.0303C28.2837 11.6556 31.7336 14.4626 31.7336 20.0768ZM229.687 -0.00390625L207.692 58.7278H220.846L225.375 46.204H245.859L250.388 58.7278H263.973L241.978 -0.00390625H229.687ZM241.763 35.1917H229.256L235.509 17.2703L241.763 35.1917ZM302.14 28.9299L319.606 0.427887H305.159L294.809 18.9972L284.674 0.427887H269.58L286.831 29.1462L268.717 58.9433H283.165L294.162 39.2943L305.16 58.9433H320.038L302.14 28.9299ZM71.8395 47.4992V34.9755H95.3438V23.7477H71.8395V11.6557H98.3626V0.211632H58.9014V58.727H83.4833L89.5211 47.4992H71.8395ZM183.966 0.211632L170.812 19.2127L157.443 0.211632H157.227L143.858 25.6908V58.727H156.58V22.4517L170.38 40.3731V40.5891H171.027L185.044 22.4514V58.7267H197.766V0.211305L183.966 0.211632Z" fill="#DC1C2E"/>
<path d="M127.716 0.205078L96.8809 58.7198H112.838L143.673 0.205078H127.716Z" fill="#003DA5"/>
</g>
<defs>
<clipPath id="clip0_975_370">
<rect width="320" height="58.9474" fill="white"/>
</clipPath>
</defs>
</svg>
