<svg width="320" height="65" viewBox="0 0 320 65" fill="none" xmlns="http://www.w3.org/2000/svg">
<path d="M279.366 12.3438C272.03 12.3438 267.448 16.4187 265.238 25.2835L263.885 30.684C261.674 39.5478 264.201 43.726 271.534 43.726H286.961C289.303 43.726 290.425 44.9483 289.943 46.8845L289.182 49.9407C288.698 51.8769 286.966 53.0992 284.624 53.0992H258.617L256.737 60.6384H292.09C300.241 60.6384 305.206 57.0739 306.984 49.9407L309.587 39.5529C311.366 32.4217 308.178 28.8551 300.028 28.8551H285.317C283.179 28.8551 282.386 27.9387 282.87 26.0025L283.675 22.7356C284.16 20.8005 285.408 19.883 287.545 19.883H314.367L316.245 12.3448H279.366V12.3438Z" fill="#104277"/>
<path d="M130.812 12.3438C123.476 12.3438 118.893 16.4187 116.684 25.2835L115.33 30.684C113.12 39.5478 115.646 43.726 122.981 43.726H138.406C140.751 43.726 141.872 44.9483 141.39 46.8845L140.628 49.9407C140.145 51.8769 138.412 53.0992 136.07 53.0992H110.064L108.184 60.6384H143.535C151.687 60.6384 156.653 57.0739 158.43 49.9407L161.034 39.5529C162.813 32.4217 159.626 28.8551 151.475 28.8551H136.763C134.624 28.8551 133.831 27.9387 134.316 26.0025L135.121 22.7356C135.606 20.8005 136.854 19.883 138.992 19.883H165.813L167.691 12.3448H130.812V12.3438Z" fill="#104277"/>
<path d="M176.026 10.7812L166.975 47.086C164.635 56.4612 168.077 60.6374 175.212 60.6374H193.668L195.547 53.0981H188.065C184.907 53.0981 183.915 52.1827 184.904 48.207L191.968 19.8809H202.096L203.975 12.3427H193.848L196.772 0.619141L176.026 10.7812Z" fill="#104277"/>
<path d="M28.5531 60.6384L65.3784 2.18164H55.4311L27.1475 48.7062H27.0544L21.2123 2.18164H0.488281L8.63512 60.6384H28.5531Z" fill="#104277"/>
<path d="M77.0967 23.3473C77.7306 20.7994 78.6734 19.882 81.0157 19.882H88.4202C90.7645 19.882 91.8856 21.1043 91.4025 23.0405L88.2288 35.7726H73.997L77.0967 23.3473ZM73.6506 12.3438C65.5018 12.3438 60.637 16.3174 58.4283 25.1802L52.7868 47.802C50.5772 56.6648 53.4582 60.6384 61.6101 60.6384H100.238L102.119 53.0992H73.4532C71.1089 53.0992 69.9878 51.8769 70.4699 49.9407L72.1185 43.3149H104.56L109.082 25.1812C111.291 16.3184 108.409 12.3448 100.258 12.3448H73.6506V12.3438Z" fill="#104277"/>
<path d="M219.015 49.9398L221.605 39.5519C222.089 37.6157 223.82 36.3955 226.163 36.3955H236.616L232.454 53.0983H221.998C219.654 53.0983 218.533 51.876 219.015 49.9398ZM211.826 12.3428L209.949 19.881L236.969 19.882C239.313 19.882 240.434 21.1033 239.952 23.0405L238.496 28.8532H218.292C210.14 28.8532 205.175 32.4167 203.399 39.5509L200.795 49.9388C199.016 57.0709 202.203 60.6365 210.354 60.6365H248.785L257.634 25.1783C259.843 16.3155 256.961 12.3418 248.811 12.3418L211.826 12.3428Z" fill="#104277"/>
<path d="M311.754 55.3296H312.67C313.282 55.3296 313.516 55.7174 313.516 56.0951C313.516 56.4708 313.272 56.8587 312.659 56.8587H311.753V55.3296H311.754ZM311.274 54.8404V58.8435H311.754V57.3458H312.66H312.742L313.415 58.8435H313.966L313.23 57.2455C313.741 57.0511 314.005 56.6025 314.005 56.1042C314.005 55.442 313.557 54.8404 312.671 54.8404H311.274ZM309.257 56.8678C309.257 55.0339 310.684 53.5473 312.507 53.5473C314.331 53.5473 315.757 55.0349 315.757 56.8678C315.757 58.7007 314.331 60.1802 312.507 60.1802C310.684 60.1802 309.257 58.7017 309.257 56.8678ZM308.768 56.8678C308.768 58.9468 310.428 60.6379 312.506 60.6379C314.586 60.6379 316.245 58.9468 316.245 56.8678C316.245 54.7888 314.585 53.0977 312.506 53.0977C310.428 53.0987 308.768 54.7898 308.768 56.8678Z" fill="#104277"/>
<mask id="mask0_975_385" style="mask-type:luminance" maskUnits="userSpaceOnUse" x="308" y="53" width="9" height="8">
<path d="M313.937 57.824L313.143 58.2822C312.613 58.5881 312.217 58.3691 312.028 58.042C311.84 57.7167 311.857 57.2588 312.388 56.9525L313.173 56.4993L313.937 57.8235L313.937 57.824ZM314.597 58.0076L312.595 54.541L312.18 54.781L312.928 56.078L312.144 56.5311L312.073 56.5722L310.741 55.6113L310.264 55.8868L311.7 56.903C311.355 57.3266 311.351 57.8472 311.6 58.2787C311.931 58.8522 312.619 59.1494 313.387 58.7063L314.597 58.0076ZM315.33 55.2433C316.247 56.8315 315.755 58.8323 314.175 59.7442C312.596 60.6561 310.617 60.0807 309.701 58.4934C308.784 56.9061 309.279 54.912 310.859 54.0001C312.438 53.0882 314.413 53.6551 315.33 55.2433ZM315.754 54.9987C314.714 53.1983 312.43 52.5642 310.631 53.6032C308.83 54.6432 308.239 56.9371 309.278 58.7375C310.318 60.5379 312.601 61.1725 314.401 60.133C316.2 59.0932 316.793 56.7983 315.754 54.9987Z" fill="white"/>
</mask>
<g mask="url(#mask0_975_385)">
<path d="M310.646 63.8764L319.519 58.7539L314.384 49.8615L305.512 54.984L310.646 63.8764Z" fill="#104277"/>
</g>
</svg>
