<svg width="320" height="69" viewBox="0 0 320 69" fill="none" xmlns="http://www.w3.org/2000/svg">
<g clip-path="url(#clip0_975_412)">
<path d="M26.8668 32.7999C28.8209 32.7999 30.5264 32.868 32.0379 33.1437C34.1894 33.5216 36.0107 36.5207 36.0107 37.9846C36.0107 38.7335 36.0107 39.5641 35.6839 40.776C35.1528 42.6348 31.5034 49.3207 29.9851 51.8365C28.157 48.8714 23.8541 40.4969 22.3664 37.2356C21.7196 35.8671 21.3928 34.7301 21.3928 34.1718C21.3928 33.1437 23.4353 32.7999 26.8668 32.7999ZM2.48215 32.7999C4.30683 33.2526 5.37577 33.6305 6.87364 36.3131C12.1468 45.9914 17.4268 56.6603 22.5639 67.1556C23.2107 67.7003 23.9664 67.8229 25.0592 67.8229C26.1145 67.8229 26.8634 67.7003 27.5375 67.159C29.9851 62.5394 36.443 50.1411 39.2277 45.3275C42.4685 51.2782 48.0481 62.1377 50.3119 67.159C50.9383 67.7037 51.7145 67.8229 52.7732 67.8229C53.8456 67.8229 54.6183 67.7003 55.2413 67.159C59.7994 57.1871 64.6043 47.3299 69.6515 37.5965C71.3741 34.1718 72.1196 33.2526 75.6702 32.5922L77.1749 32.3267C78.0328 31.4654 77.8115 29.4467 76.8583 29.0586C74.4924 29.2458 71.7009 29.3411 68.5656 29.3411C65.883 29.3411 63.323 29.2458 59.7621 29.0586C58.6864 29.4467 58.6864 31.6628 59.3434 32.3267L61.1545 32.6773C63.003 33.0552 63.8473 33.5216 63.8473 33.9948C63.8473 34.645 63.5204 35.9454 62.8532 37.5965C61.1545 41.896 59.4694 46.4543 56.8583 51.8365C54.5026 47.3633 51.5 41.3377 49.5528 36.8714C48.9196 35.302 48.7017 34.7267 48.7017 33.9948C48.7017 33.5216 50.1894 33.0552 52.6779 32.5922L54.2779 32.3267C55.0541 31.9488 55.1358 29.1709 53.9579 29.0586C47.6186 29.2457 41.277 29.3399 34.9349 29.3411H13.226C8.71194 29.3411 5.28045 29.2458 0.875345 29.0586C-0.22423 29.525 -0.22423 31.5675 0.521302 32.3267L2.48215 32.7999Z" fill="black"/>
<path d="M92.2596 32.2039C95.8987 32.2039 97.9549 34.2295 97.9549 37.3035C97.9549 38.2363 97.7405 39.1758 97.206 39.4414C96.0043 40.095 94.2885 40.2686 92.7873 40.2686H88.8179C85.3592 40.2686 83.8749 40.2005 83.8749 38.8831C83.8749 35.9009 87.7456 32.2005 92.263 32.2005L92.2596 32.2039ZM92.1473 67.6967C98.5915 67.6967 106.568 64.9971 110.963 57.1027C110.963 55.5197 109.332 54.7707 108.164 54.9443C105.26 59.2371 101.162 59.7784 98.1626 59.7784C88.1745 59.7784 83 53.0073 83 46.0388C83 44.5546 83.2247 44.3707 85.703 44.3707H106.316C109.672 44.3707 110.197 43.0703 110.197 41.3069C110.197 34.1409 104.171 27.918 92.9915 27.918C79.5787 27.918 69.7949 37.0312 69.7949 48.7452C69.7949 58.8729 77.6417 67.6967 92.1473 67.6967ZM137.652 32.7997C139.616 32.7997 141.322 32.8678 142.833 33.1435C144.985 33.5214 146.809 36.5205 146.809 37.9844C146.809 38.7333 146.809 39.5639 146.489 40.7758C145.938 42.6346 142.292 49.3205 140.794 51.8363C138.946 48.8712 134.666 40.4967 133.162 37.2354C132.529 35.8669 132.192 34.7299 132.192 34.1716C132.192 33.1435 134.22 32.7997 137.652 32.7997ZM113.271 32.7997C115.112 33.2524 116.171 33.6303 117.676 36.3129C122.932 45.9912 128.226 56.6601 133.369 67.1554C134.023 67.7001 134.772 67.8227 135.848 67.8227C136.913 67.8227 137.652 67.7001 138.312 67.1588C140.797 62.5392 147.232 50.1409 150.033 45.3273C153.267 51.278 158.83 62.1375 161.094 67.1588C161.74 67.7035 162.489 67.8227 163.558 67.8227C164.644 67.8227 165.4 67.7001 166.037 67.1588C170.6 57.1884 175.407 47.3312 180.454 37.5963C182.173 34.1716 182.915 33.2524 186.459 32.592L187.977 32.3265C188.825 31.4652 188.6 29.4465 187.647 29.0584C185.271 29.2456 182.493 29.3409 179.361 29.3409C176.424 29.3269 173.489 29.2327 170.557 29.0584C169.468 29.4465 169.468 31.6626 170.129 32.3265L171.953 32.6771C173.785 33.055 174.636 33.5214 174.636 33.9946C174.636 34.6448 174.312 35.9452 173.679 37.5963C171.953 41.8958 170.231 46.4541 167.643 51.8363C165.288 47.3631 162.285 41.3375 160.352 36.8712C159.698 35.3018 159.483 34.7265 159.483 33.9946C159.483 33.5214 160.978 33.055 163.466 32.592L165.066 32.3265C165.822 31.9486 165.934 29.1707 164.746 29.0584C157.877 29.2456 152.484 29.3409 145.723 29.3409H124.011C119.893 29.3415 115.775 29.2473 111.66 29.0584C110.595 29.5248 110.595 31.5673 111.344 32.3265L113.271 32.7997Z" fill="black"/>
<path d="M205.283 32.2039C211.387 32.2039 214.4 39.9929 214.519 49.0209C214.611 57.3886 212.558 63.4244 206.427 63.4244C200.221 63.4244 196.657 56.255 196.657 46.512C196.657 36.3946 200.548 32.2005 205.283 32.2005V32.2039ZM205.283 67.6967C218.485 67.6967 229.995 61.2899 229.995 47.7035C229.995 34.6039 218.584 27.918 205.913 27.918C193.226 27.918 181.079 35.2541 181.181 48.5546C181.307 61.3682 192.47 67.6967 205.283 67.6967Z" fill="black"/>
<path d="M248.307 35.7926C248.97 35.7926 249.924 35.8947 252.385 37.6513C253.764 38.7747 255.057 39.333 256.572 39.333C260.004 39.333 263.459 37.5696 263.459 33.2905C263.459 29.7807 260.45 27.8096 257.525 27.8096C253.028 27.8096 249.924 30.8735 247.003 32.4462C246.152 32.276 245.927 31.9935 245.927 31.3364C245.927 30.5058 246.148 29.2156 246.346 27.3398C245.927 26.7884 245.267 26.4922 244.439 26.4922C241.093 28.3781 233.682 30.8735 228.722 32.0956C227.973 32.6403 227.973 34.3152 228.722 34.8769L230.254 35.7143C232.286 36.8309 232.286 37.9407 232.286 41.665V55.6905C232.286 62.1926 231.854 63.0267 228.303 63.3194L226.257 63.4896C225.392 64.0479 225.393 66.1994 226.37 66.7577C230.596 66.5518 234.826 66.4565 239.057 66.4718C244.095 66.4718 248.405 66.5535 253.57 66.7543C254.536 66.1994 254.536 64.0479 253.668 63.4896L250.23 63.2309C246.683 62.9347 246.247 62.1892 246.247 55.6905V41.3824C246.247 37.8556 246.788 35.7926 248.307 35.7926Z" fill="black"/>
<path d="M290.479 63.183L289.086 63.4723C288.215 64.3064 288.426 66.2468 289.505 66.7064C292.514 66.5226 296.371 66.434 302.741 66.434C308.97 66.434 312.94 66.5226 316.262 66.7064C317.341 66.3489 317.563 64.1157 316.688 63.4723L315.091 63.1796C312.303 62.72 310.264 62.24 308.759 61.0519C306.056 58.9174 296.596 46.2706 294.69 43.2987C294.135 42.5566 293.907 42.0051 293.907 41.7157C293.907 41.4434 294.019 41.0757 294.547 40.5038C296.058 39.2204 297.699 37.8009 301.767 35.1081C304.657 33.1745 306.935 32.2485 308.974 31.8672L312.399 31.2136C313.168 30.4885 313.062 28.4119 311.963 27.9626C305.638 28.8068 296.712 29.263 291.653 29.263H289.086C288.014 29.6511 287.895 31.68 288.861 32.514L291.558 32.9021C292.514 32.977 293.587 33.3447 293.587 33.8213C293.587 34.3796 293.069 35.394 291.013 37.5183L286.513 42.1004C284.354 44.2281 282.097 44.6945 280.269 44.6945C279.102 44.6945 278.754 44.4153 278.754 43.3906V14.2196C278.754 8.35745 278.89 4.44936 279.102 0.646809C278.679 0.170213 277.903 0 277.263 0C271.769 2.02553 265.229 4.27915 260.827 5.18468C260.065 5.7566 260.065 7.43489 260.827 7.96255L262.652 8.91574C264.793 10.0357 264.793 11.0536 264.793 14.7915V55.6562C264.793 62.1583 264.361 62.9038 260.477 63.2885L258.434 63.4723C257.587 64.017 257.587 66.1617 258.543 66.7064C262.914 66.5116 267.288 66.4208 271.663 66.434C276.613 66.434 281.12 66.5226 284.576 66.7064C285.529 66.1617 285.529 64.017 284.678 63.4723L282.969 63.2885C279.19 62.9038 278.754 62.1549 278.754 55.6562V50.2774C278.754 48.497 279.299 48.0443 280.041 48.0443C281.12 48.0443 281.985 48.4187 282.751 49.4128L290.37 59.4723C291.231 60.5753 292.191 62.0596 292.191 62.4613C292.191 62.8051 291.558 62.9821 290.479 63.183Z" fill="black"/>
</g>
<defs>
<clipPath id="clip0_975_412">
<rect width="320" height="68.0851" fill="white"/>
</clipPath>
</defs>
</svg>
